{
    "asset" : {
        "generator" : "Khronos glTF Blender I/O v1.1.46",
        "version" : "2.0"
    },
    "scene" : 0,
    "scenes" : [
        {
            "name" : "Scene",
            "nodes" : [
                0,
                1,
                2,
                3
            ]
        }
    ],
    "nodes" : [
        {
            "mesh" : 0,
            "name" : "path854",
            "rotation" : [
                0.7071067690849304,
                0,
                0,
                0.7071067690849304
            ],
            "scale" : [
                6.081864833831787,
                6.081864833831787,
                6.081864833831787
            ],
            "translation" : [
                -0.4814029335975647,
                0,
                0
            ]
        },
        {
            "mesh" : 1,
            "name" : "path854.001",
            "rotation" : [
                0.7071067690849304,
                0,
                0,
                0.7071067690849304
            ],
            "scale" : [
                6.081864833831787,
                6.081864833831787,
                6.081864833831787
            ],
            "translation" : [
                -0.4814029335975647,
                0,
                0
            ]
        },
        {
            "name" : "Light",
            "rotation" : [
                0.16907575726509094,
                0.7558803558349609,
                -0.27217137813568115,
                0.570947527885437
            ],
            "translation" : [
                1.3413379192352295,
                1.5674169063568115,
                2.7305400371551514
            ]
        },
        {
            "name" : "Camera",
            "rotation" : [
                0.49052760004997253,
                0.34001660346984863,
                -0.20366787910461426,
                0.7760739326477051
            ],
            "translation" : [
                7.358891487121582,
                4.958309173583984,
                6.925790786743164
            ]
        }
    ],
    "materials" : [
        {
            "doubleSided" : true,
            "name" : "SVGMat.003",
            "pbrMetallicRoughness" : {}
        },
        {
            "doubleSided" : true,
            "emissiveFactor" : [
                0,
                0,
                0
            ],
            "name" : "Material.001",
            "pbrMetallicRoughness" : {
                "baseColorFactor" : [
                    1,
                    0.2122306376695633,
                    0.052860699594020844,
                    1
                ],
                "metallicFactor" : 0.699999988079071,
                "roughnessFactor" : 0.5
            }
        }
    ],
    "meshes" : [
        {
            "name" : "path854.001",
            "primitives" : [
                {
                    "attributes" : {
                        "POSITION" : 0,
                        "NORMAL" : 1,
                        "TEXCOORD_0" : 2
                    },
                    "indices" : 3,
                    "material" : 0
                }
            ]
        },
        {
            "name" : "path854.002",
            "primitives" : [
                {
                    "attributes" : {
                        "POSITION" : 4,
                        "NORMAL" : 5,
                        "TEXCOORD_0" : 6
                    },
                    "indices" : 7,
                    "material" : 1
                }
            ]
        }
    ],
    "accessors" : [
        {
            "bufferView" : 0,
            "componentType" : 5126,
            "count" : 11660,
            "max" : [
                0.20279619097709656,
                0.003696978325024247,
                -0.005083449184894562
            ],
            "min" : [
                0.0034827226772904396,
                -9.603695070836693e-05,
                -0.04477471485733986
            ],
            "type" : "VEC3"
        },
        {
            "bufferView" : 1,
            "componentType" : 5126,
            "count" : 11660,
            "type" : "VEC3"
        },
        {
            "bufferView" : 2,
            "componentType" : 5126,
            "count" : 11660,
            "type" : "VEC2"
        },
        {
            "bufferView" : 3,
            "componentType" : 5123,
            "count" : 17748,
            "type" : "SCALAR"
        },
        {
            "bufferView" : 4,
            "componentType" : 5126,
            "count" : 6190,
            "max" : [
                0.20671632885932922,
                0.0037817349657416344,
                -0.002379985759034753
            ],
            "min" : [
                0.009889109991490841,
                0,
                -0.044803448021411896
            ],
            "type" : "VEC3"
        },
        {
            "bufferView" : 5,
            "componentType" : 5126,
            "count" : 6190,
            "type" : "VEC3"
        },
        {
            "bufferView" : 6,
            "componentType" : 5126,
            "count" : 6190,
            "type" : "VEC2"
        },
        {
            "bufferView" : 7,
            "componentType" : 5123,
            "count" : 10770,
            "type" : "SCALAR"
        }
    ],
    "bufferViews" : [
        {
            "buffer" : 0,
            "byteLength" : 139920,
            "byteOffset" : 0
        },
        {
            "buffer" : 0,
            "byteLength" : 139920,
            "byteOffset" : 139920
        },
        {
            "buffer" : 0,
            "byteLength" : 93280,
            "byteOffset" : 279840
        },
        {
            "buffer" : 0,
            "byteLength" : 35496,
            "byteOffset" : 373120
        },
        {
            "buffer" : 0,
            "byteLength" : 74280,
            "byteOffset" : 408616
        },
        {
            "buffer" : 0,
            "byteLength" : 74280,
            "byteOffset" : 482896
        },
        {
            "buffer" : 0,
            "byteLength" : 49520,
            "byteOffset" : 557176
        },
        {
            "buffer" : 0,
            "byteLength" : 21540,
            "byteOffset" : 606696
        }
    ],
    "buffers" : [
        {
            "byteLength" : 628236,
            "uri" : "data:application/octet-stream;base64,"
        }
    ]
}
